<?xml version="1.0" standalone="no"?>
<!DOCTYPE svg PUBLIC "-//W3C//DTD SVG 20010904//EN"
 "http://www.w3.org/TR/2001/REC-SVG-20010904/DTD/svg10.dtd">
<svg version="1.0" xmlns="http://www.w3.org/2000/svg"
 width="800.000000pt" height="800.000000pt" viewBox="0 0 800.000000 800.000000"
 preserveAspectRatio="xMidYMid meet">
<metadata>
Created by potrace 1.14, written by Peter Selinger 2001-2017
</metadata>
<g transform="translate(0.000000,800.000000) scale(0.100000,-0.100000)"
fill="#000000" stroke="none">
<path d="M1649 7996 c-2 -2 -33 -7 -69 -10 -301 -30 -663 -183 -910 -385 -67
-54 -236 -223 -270 -269 -14 -19 -35 -46 -46 -60 -12 -15 -41 -58 -66 -97
-150 -234 -239 -483 -278 -775 -10 -79 -8 -4802 3 -4845 6 -26 17 -75 31 -150
45 -229 189 -530 351 -730 279 -345 692 -586 1110 -650 17 -3 59 -9 95 -14 81
-12 4722 -13 4800 -1 151 22 135 19 257 49 171 42 378 136 543 246 368 244
643 636 745 1058 56 234 54 104 52 2677 -2 1306 -6 2389 -10 2405 -7 26 -19
86 -31 150 -31 162 -137 415 -242 578 -138 213 -328 403 -540 540 -71 46 -263
147 -280 147 -5 0 -21 6 -35 14 -76 40 -298 95 -459 115 -71 9 -4742 15 -4751
7z"/>
</g>
</svg>
