<svg width="1722" height="708" viewBox="0 0 1722 708" fill="none" xmlns="http://www.w3.org/2000/svg">
<path d="M231.918 487.001L212.544 444.264H90.0322L70.4683 487.001H3.98877L150.244 173.218H152.143L298.588 487.001H231.918ZM113.965 391.84H188.612L151.383 309.976L113.965 391.84ZM327.459 487.001V173.598H385.961V487.001H327.459ZM563.176 251.664C627.566 251.664 674.672 306.557 674.672 373.416C674.672 433.058 634.024 494.789 563.746 494.789C534.305 494.789 509.803 483.772 492.328 463.638V572.475H435.346V259.071H488.529L490.999 283.954C508.663 262.68 533.925 251.664 563.176 251.664ZM553.679 436.287C591.857 436.287 616.17 404.566 616.17 372.656C616.17 339.037 589.008 310.166 553.679 310.166C521.579 310.166 492.328 333.908 492.328 372.846C492.328 410.075 518.92 436.287 553.679 436.287ZM835.932 253.373C879.619 253.373 918.937 274.836 918.937 363.729V487.001H860.435V363.729C860.435 323.841 845.619 309.976 816.368 309.976C787.497 309.976 770.402 329.54 770.402 363.729V487.001H711.9V173.598H770.402V280.155C786.737 263.25 809.15 253.373 835.932 253.373ZM1142.12 259.071H1196.82V487.001H1142.12L1139.65 461.929C1122.17 483.012 1097.1 494.599 1066.9 494.599C996.623 494.599 955.975 432.868 955.975 373.226C955.975 306.367 1003.08 251.474 1067.47 251.474C1096.72 251.474 1121.98 262.49 1139.65 283.764L1142.12 259.071ZM1076.97 436.097C1111.73 436.097 1138.32 409.885 1138.32 372.656C1138.32 333.718 1109.07 309.976 1076.97 309.976C1041.64 309.976 1014.48 338.847 1014.48 372.466C1014.48 404.376 1038.79 436.097 1076.97 436.097Z" fill="white"/>
<path d="M1233.75 482.26L1233.68 482.192L1233.62 482.124C1233.21 481.719 1232.9 481.239 1232.68 480.711C1232.47 480.191 1232.36 479.634 1232.36 479.073C1232.36 479.064 1232.36 479.056 1232.36 479.048L1234.72 250.14C1234.72 250.127 1234.72 250.115 1234.72 250.103C1235.09 225.599 1245.11 202.231 1262.61 185.07C1280.1 167.913 1303.65 158.345 1328.15 158.44C1352.66 158.726 1376.06 168.711 1393.23 186.211C1410.4 203.722 1419.93 227.328 1419.73 251.855C1419.73 251.858 1419.73 251.861 1419.73 251.864L1419.43 283.659L1419.27 300.159L1435.77 300.318L1467.56 300.625C1467.56 300.625 1467.57 300.625 1467.57 300.625C1492.1 300.899 1515.51 310.886 1532.69 328.397C1549.86 345.897 1559.39 369.484 1559.2 393.995C1558.82 418.492 1548.8 441.854 1531.31 459.011C1513.81 476.172 1490.26 485.74 1465.75 485.641C1465.74 485.641 1465.72 485.641 1465.71 485.641L1236.8 483.577C1236.79 483.577 1236.78 483.576 1236.78 483.576C1236.21 483.565 1235.66 483.445 1235.14 483.223C1234.62 482.997 1234.15 482.67 1233.75 482.26Z" fill="#FF0040" stroke="white" stroke-width="33"/>
</svg>
