<svg width="1722" height="708" viewBox="0 0 1722 708" fill="none" xmlns="http://www.w3.org/2000/svg">
<path d="M231.918 487L212.544 444.263H90.0322L70.4683 487H3.98877L150.244 173.217H152.143L298.588 487H231.918ZM113.965 391.839H188.612L151.383 309.975L113.965 391.839ZM327.459 487V173.597H385.961V487H327.459ZM563.176 251.663C627.566 251.663 674.672 306.556 674.672 373.415C674.672 433.057 634.024 494.788 563.746 494.788C534.305 494.788 509.803 483.771 492.328 463.637V572.474H435.346V259.07H488.529L490.999 283.953C508.663 262.679 533.925 251.663 563.176 251.663ZM553.679 436.286C591.857 436.286 616.17 404.565 616.17 372.655C616.17 339.036 589.008 310.165 553.679 310.165C521.579 310.165 492.328 333.907 492.328 372.845C492.328 410.074 518.92 436.286 553.679 436.286ZM835.932 253.372C879.619 253.372 918.937 274.835 918.937 363.728V487H860.435V363.728C860.435 323.84 845.619 309.975 816.368 309.975C787.497 309.975 770.402 329.539 770.402 363.728V487H711.9V173.597H770.402V280.154C786.737 263.249 809.15 253.372 835.932 253.372ZM1142.12 259.07H1196.82V487H1142.12L1139.65 461.928C1122.17 483.011 1097.1 494.598 1066.9 494.598C996.623 494.598 955.975 432.867 955.975 373.225C955.975 306.366 1003.08 251.473 1067.47 251.473C1096.72 251.473 1121.98 262.489 1139.65 283.763L1142.12 259.07ZM1076.97 436.096C1111.73 436.096 1138.32 409.884 1138.32 372.655C1138.32 333.717 1109.07 309.975 1076.97 309.975C1041.64 309.975 1014.48 338.846 1014.48 372.465C1014.48 404.375 1038.79 436.096 1076.97 436.096Z" fill="white"/>
<path d="M1233.69 484.831C1231.76 482.885 1230.23 480.576 1229.2 478.038C1228.16 475.5 1227.63 472.782 1227.65 470.041L1230.01 240.98C1230.44 212.117 1242.24 184.589 1262.85 164.376C1283.45 144.162 1311.2 132.897 1340.07 133.025C1368.97 133.345 1396.56 145.111 1416.79 165.742C1437.03 186.374 1448.26 214.187 1448.02 243.086L1447.72 274.904L1479.53 275.211C1508.43 275.531 1536.02 287.297 1556.26 307.928C1576.5 328.56 1587.73 356.373 1587.49 385.272C1587.06 414.135 1575.26 441.662 1554.65 461.876C1534.04 482.089 1506.29 493.355 1477.43 493.226L1248.36 491.16C1245.62 491.123 1242.92 490.544 1240.4 489.458C1237.88 488.372 1235.6 486.8 1233.69 484.831Z" fill="#FF0040"/>
</svg>
